<svg xmlns="http://www.w3.org/2000/svg" width="32" height="32" enable-background="new 0 0 32 32" viewBox="0 0 32 32" id="user">
  <path d="M16 1c-4.411 0-8 3.589-8 8s3.589 8 8 8 8-3.589 8-8S20.411 1 16 1zM20 10c-.553 0-1-.448-1-1 0-1.654-1.346-3-3-3-.553 0-1-.448-1-1s.447-1 1-1c2.757 0 5 2.243 5 5C21 9.552 20.553 10 20 10zM28.02 31c-.006-.001-.013 0-.02 0H4c-.553 0-1-.448-1-1 0-7.168 5.832-13 13-13 7.099 0 12.887 5.72 12.998 12.792.015.067.021.137.021.208C29.02 30.552 28.572 31 28.02 31z"></path>
</svg>
