<svg width="176" height="176" viewBox="0 0 176 176" fill="none" xmlns="http://www.w3.org/2000/svg">
<path d="M88 5.5C63.7395 5.5 44 25.2395 44 49.5C44 73.7605 63.7395 93.5 88 93.5C112.26 93.5 132 73.7605 132 49.5C132 25.2395 112.26 5.5 88 5.5ZM110 55C106.959 55 104.5 52.536 104.5 49.5C104.5 40.403 97.097 33 88 33C84.9585 33 82.5 30.536 82.5 27.5C82.5 24.464 84.9585 22 88 22C103.163 22 115.5 34.3365 115.5 49.5C115.5 52.536 113.041 55 110 55ZM154.11 170.5C154.077 170.494 154.038 170.5 154 170.5H22C18.9585 170.5 16.5 168.036 16.5 165C16.5 125.576 48.576 93.5 88 93.5C127.044 93.5 158.878 124.96 159.489 163.856C159.571 164.225 159.604 164.609 159.604 165C159.61 168.036 157.146 170.5 154.11 170.5Z" fill="white"/>
</svg>
