<svg width="116" height="176" viewBox="0 0 116 176" fill="none" xmlns="http://www.w3.org/2000/svg">
<path d="M57.5 43.9546C41.9237 43.9546 29.25 56.7404 29.25 72.4546C29.25 88.1688 41.9237 100.955 57.5 100.955C73.0763 100.955 85.75 88.1688 85.75 72.4546C85.75 56.7404 73.0763 43.9546 57.5 43.9546ZM71.625 76.0171C69.6722 76.0171 68.0938 74.4211 68.0938 72.4546C68.0938 66.5622 63.3407 61.7671 57.5 61.7671C55.5472 61.7671 53.9688 60.1711 53.9688 58.2046C53.9688 56.2381 55.5472 54.6421 57.5 54.6421C67.2357 54.6421 75.1563 62.6328 75.1563 72.4546C75.1563 74.4211 73.5778 76.0171 71.625 76.0171ZM99.9456 150.83C99.9244 150.826 99.8997 150.83 99.875 150.83H15.125C13.1722 150.83 11.5938 149.234 11.5938 147.267C11.5938 121.731 32.188 100.955 57.5 100.955C82.5683 100.955 103.007 121.332 103.399 146.526C103.452 146.765 103.473 147.014 103.473 147.267C103.477 149.234 101.895 150.83 99.9456 150.83Z" fill="#DFDFDF"/>
</svg>
