<svg width="734" height="194" viewBox="0 0 734 194" fill="none" xmlns="http://www.w3.org/2000/svg">
<path fill-rule="evenodd" clip-rule="evenodd" d="M2.81445 96.6606C4.40479 94.0658 4.25799 91.0103 5.01645 88.1973C11.5246 64.2868 26.4493 47.6028 49.2033 37.6845C54.2679 35.4778 58.5985 36.957 60.4579 41.225C62.2685 45.396 60.1888 49.3488 55.0019 51.5556C29.6055 62.3711 15.1212 87.2516 18.6444 113.999C22.0208 139.583 42.8175 160.196 69.4861 164.367C98.9685 168.974 128.035 150.665 136.427 122.22C144.746 93.9688 130.359 63.9473 102.785 51.9678C101.464 51.4101 100.069 50.9251 98.9195 50.1248C95.9591 48.0878 95.0049 43.8683 96.6441 40.7158C98.4547 37.2238 102.369 35.696 106.357 37.1995C120.059 42.4375 131.216 51.022 139.852 62.7591C172.124 106.53 146.409 169.435 92.5337 178.65C50.0107 185.901 12.2341 160.123 3.76865 118.122C3.57292 117.2 4.08672 115.964 2.81445 115.382C2.81445 109.149 2.81445 102.893 2.81445 96.6606Z" fill="#E74C3C"/>
<path fill-rule="evenodd" clip-rule="evenodd" d="M420.926 185.634C418.454 184.567 415.934 183.597 413.512 182.457C405.022 178.48 400.667 171.763 399.982 162.524C399.786 160.026 400.692 159.565 402.845 159.977C404.508 160.293 406.221 160.535 407.909 160.705C411.335 161.069 414.124 161.457 415.005 165.967C415.861 170.356 420.094 172.369 424.253 173.557C430.198 175.231 436.193 175.134 442.114 173.509C449.38 171.496 453.711 166.476 455.228 159.347C456.353 154.06 456.378 148.604 456.158 142.396C450.946 147.61 445.564 151.393 438.713 152.339C425.183 154.206 413.757 150.641 405.634 139.171C394.624 123.602 394.379 98.5278 405.022 82.7168C416.497 65.6448 440.597 63.1471 455.203 77.5273C455.668 77.9638 455.962 78.5701 456.549 79.4188C457.993 77.2848 457.552 75.3933 457.381 73.7686C457.038 70.5433 458.384 69.9128 461.345 69.9613C470.495 70.1068 470.495 69.9856 470.495 78.9823C470.495 100.71 470.495 122.414 470.471 144.142C470.471 149.598 469.957 155.03 469.076 160.438C467.094 172.612 459.705 180.032 448.328 184.13C447.056 184.591 446.077 185.27 444.511 185.634C436.682 185.634 428.804 185.634 420.926 185.634ZM457.259 110.726C457.308 106.943 457.087 103.208 456.28 99.4978C453.809 88.0518 445.368 80.2918 434.896 79.9523C424.987 79.6128 416.522 86.0633 413.488 96.6848C410.674 106.555 410.919 116.521 414.05 126.27C417.035 135.533 425.012 141.135 434.407 141.184C443.826 141.208 451.533 135.679 454.934 126.464C456.818 121.347 457.356 116.085 457.259 110.726Z" fill="#E74C3C"/>
<path fill-rule="evenodd" clip-rule="evenodd" d="M83.897 7.68734C87.0532 10.0638 87.9584 13.1436 87.9095 17.0721C87.7138 33.1983 87.8361 49.3246 87.8116 65.4508C87.8116 67.1483 87.6159 68.6033 89.9647 69.2823C102.981 73.0168 108.975 82.6198 111.422 95.0843C112.327 99.7161 112.132 104.396 112.327 109.077C112.45 111.744 111.471 112.278 109 112.253C92.4603 112.156 75.9453 112.302 59.4058 112.108C55.8337 112.059 55.3933 113.175 55.8826 116.327C58.8676 135.582 74.0124 144.166 93.8304 137.716C98.3078 136.261 102.296 133.836 106.7 130.974C106.7 134.733 106.626 137.934 106.724 141.111C106.798 142.784 105.648 143.39 104.522 143.972C90.9434 151.102 76.8261 152.387 62.4397 146.882C54.7572 143.948 49.399 138.08 46.3406 130.586C40.9335 117.297 40.4197 103.717 45.9247 90.3313C50.3776 79.5401 58.3048 72.0468 69.8776 69.0156C72.5444 68.3123 72.6178 66.9543 72.5934 64.8931C72.5444 48.7668 72.6423 32.6406 72.4955 16.5143C72.471 12.6828 73.4252 9.70009 76.7772 7.66309C79.1749 7.68734 81.5482 7.68734 83.897 7.68734ZM77.6335 101.365C83.9214 101.365 90.2094 101.389 96.5218 101.341C97.5738 101.341 98.7482 101.802 99.0418 99.8616C100.192 92.0288 94.0506 82.0621 86.2702 79.4188C72.7891 74.8598 57.3262 85.1661 56.2007 99.3281C56.0294 101.365 56.9347 101.365 58.3782 101.365C64.7885 101.365 71.2232 101.365 77.6335 101.365Z" fill="#E74C3C"/>
<path fill-rule="evenodd" clip-rule="evenodd" d="M335.756 127.992C331.303 144.263 319.388 153.769 302.751 154.497C297.637 154.715 292.523 154.618 287.532 153.284C274.418 149.792 265.855 141.45 262.063 128.646C258.662 117.176 258.784 105.512 262.405 94.0901C267.739 77.1636 282.443 67.3181 300.451 68.2639C318.287 69.2096 331.425 80.4374 335.022 97.8731C335.952 102.335 336.123 106.894 336.417 111.429C336.612 114.412 335.536 115.139 332.624 115.115C314.519 114.994 296.438 115.188 278.333 114.945C274.32 114.897 274.1 116.4 274.638 119.456C275.96 126.949 278.626 133.715 284.963 138.516C297.05 147.683 313.565 143.366 319.926 129.18C321.052 126.658 322.251 125.882 324.844 126.367C328.49 127.046 332.111 127.458 335.756 127.992ZM298.469 103.548C305.271 103.548 312.097 103.572 318.899 103.523C320.073 103.523 321.688 104.033 321.345 101.729C320.587 96.5394 319.363 91.5439 315.84 87.3971C309.821 80.3404 300.059 77.8426 290.835 80.9709C282.345 83.8566 275.788 92.5139 275.226 101.171C275.079 103.62 276.302 103.572 278.015 103.572C284.841 103.523 291.643 103.548 298.469 103.548Z" fill="#E74C3C"/>
<path fill-rule="evenodd" clip-rule="evenodd" d="M616.829 115.042C607.776 115.042 598.724 115.188 589.671 114.969C586.368 114.872 586.05 116.085 586.49 118.801C588.178 129.301 592.46 138.007 603.25 141.814C615.287 146.058 626.616 141.135 631.754 129.374C633.05 126.415 634.567 125.785 637.332 126.44C638.604 126.731 639.925 126.9 641.222 127.046C648.391 127.87 648.415 127.87 645.504 134.297C639.999 146.397 630.335 152.872 617.22 154.303C611.226 154.958 605.183 154.788 599.262 153.212C584.19 149.235 574.306 137.522 572.275 120.838C571.125 111.332 571.492 101.874 574.697 92.7321C580.349 76.6786 595.127 67.1968 612.596 68.2638C630.212 69.3308 643.082 80.2191 646.825 97.3396C647.853 102.044 648.171 106.846 648.366 111.647C648.489 114.484 647.412 115.115 644.745 115.091C635.448 114.945 626.151 115.042 616.829 115.042ZM610.052 103.548C617 103.548 623.949 103.548 630.897 103.548C632.169 103.548 633.662 103.863 633.295 101.656C632.414 96.3696 631.215 91.2286 627.447 87.0576C621.257 80.2191 611.715 77.8911 602.663 81.0193C594.197 83.9536 587.787 92.4411 587.126 101.317C586.955 103.499 587.958 103.596 589.622 103.572C596.424 103.523 603.25 103.548 610.052 103.548Z" fill="#E74C3C"/>
<path fill-rule="evenodd" clip-rule="evenodd" d="M530.145 115.042C520.97 115.042 511.771 115.139 502.596 114.993C499.904 114.945 499.366 115.794 499.562 118.34C500.859 134.49 512.872 144.797 528.286 142.784C536.702 141.693 541.938 136.503 544.997 129.107C546.098 126.464 547.443 125.833 549.963 126.391C551.358 126.706 552.801 126.852 554.245 127.07C561.805 128.21 561.952 126.658 558.38 134.684C553.022 146.664 543.21 152.92 530.268 154.327C524.396 154.957 518.45 154.86 512.676 153.333C498.73 149.647 490.118 140.577 486.57 126.924C483.83 116.424 484.026 105.803 487.011 95.3267C492.051 77.6485 507.122 67.1725 525.741 68.2637C543.92 69.3307 557.23 81.3345 560.313 99.3037C560.973 103.159 561.047 107.064 561.316 110.944C561.536 114.096 560.704 115.212 557.279 115.115C548.251 114.872 539.198 115.042 530.145 115.042ZM522.952 103.547C529.778 103.547 536.58 103.426 543.406 103.596C545.975 103.669 546.465 102.844 546.22 100.468C544.948 88.2942 535.822 79.734 523.833 79.6612C511.942 79.5642 501.984 88.4155 500.443 100.177C500.051 103.062 501.03 103.669 503.721 103.596C510.107 103.426 516.542 103.547 522.952 103.547Z" fill="#E74C3C"/>
<path fill-rule="evenodd" clip-rule="evenodd" d="M732.166 152.848C726.685 152.848 721.841 152.702 716.996 152.921C714.77 153.018 714.085 151.66 713.155 150.253C704.616 137.158 696.102 124.063 687.294 110.556C684.26 113.466 681.422 116.279 678.486 119.019C677.336 120.086 677.58 121.371 677.58 122.632C677.556 131.605 677.507 140.577 677.605 149.55C677.629 151.878 677.36 153.212 674.498 152.896C670.901 152.484 666.057 154.424 663.977 152.096C662.191 150.108 663.39 145.427 663.39 141.935C663.365 108.761 663.414 75.6116 663.316 42.4376C663.316 39.4548 663.977 38.2181 667.133 38.5818C669.458 38.8486 671.88 38.8243 674.204 38.5818C677.116 38.2666 677.58 39.5033 677.58 42.0981C677.483 62.2256 677.532 82.3773 677.532 102.772C679.146 102.384 679.807 101.22 680.639 100.371C689.936 91.0103 699.209 81.6256 708.433 72.1923C709.901 70.6888 711.344 69.8886 713.522 69.9613C718.22 70.1311 722.942 70.0098 727.713 70.0098C727.957 71.8043 726.465 72.2893 725.633 73.1138C717.339 81.2618 709.118 89.4826 700.555 97.3638C697.643 100.056 697.766 101.777 699.919 104.906C709.974 119.504 719.737 134.297 729.597 148.992C730.404 150.083 731.089 151.175 732.166 152.848Z" fill="#E74C3C"/>
<path fill-rule="evenodd" clip-rule="evenodd" d="M190.376 81.0921C201.827 68.7003 214.623 65.2083 228.618 70.1311C238.502 73.6231 243.787 80.7283 244.496 90.7921C245.891 110.653 244.815 130.562 245.133 150.447C245.157 152.363 244.472 152.969 242.613 152.848C238.845 152.581 234.098 154.327 231.578 152.169C229.376 150.302 230.991 145.573 230.942 142.105C230.722 127.167 231.505 112.181 230.55 97.2668C229.694 83.6626 219.589 77.2606 206.377 81.4558C196.737 84.5356 192.04 91.5923 191.869 104.324C191.648 119.019 191.697 133.715 191.869 148.41C191.918 151.781 191.281 153.454 187.514 152.872C184.333 152.387 180.027 154.279 178.143 152.12C176.577 150.302 177.629 146.179 177.629 143.075C177.605 119.916 177.678 96.7818 177.556 73.6473C177.531 70.8586 178.045 69.8886 181.128 69.9371C190.156 70.1068 190.156 69.9613 190.278 78.9823C190.254 79.4916 190.303 79.9766 190.376 81.0921Z" fill="#E74C3C"/>
<path fill-rule="evenodd" clip-rule="evenodd" d="M364.26 81.8439C365.483 79.9282 366.095 78.9339 366.756 77.9639C373.484 67.7062 382.977 65.4024 393.889 71.2709C395.749 72.2652 396.311 73.2109 395.406 75.1994C394.207 77.7942 393.204 80.4859 392.348 83.2019C391.712 85.2389 390.855 85.2632 388.947 84.5357C377.643 80.2677 370.083 84.2689 367.074 95.8847C365.826 100.71 365.532 105.633 365.532 110.58C365.508 123.457 365.459 136.334 365.581 149.186C365.606 151.926 365.141 153.309 361.985 152.896C358.535 152.436 353.886 154.376 351.88 152.072C350.167 150.108 351.293 145.646 351.293 142.275C351.268 119.407 351.342 96.5152 351.219 73.6232C351.195 70.7617 351.855 69.8887 354.889 69.9372C363.893 70.0827 363.893 69.9372 364.089 79.0067C364.064 79.6129 364.138 80.2192 364.26 81.8439Z" fill="#E74C3C"/>
</svg>
